<svg xmlns="http://www.w3.org/2000/svg" viewBox="0 0 1200 260" width="1200" height="260" role="img" aria-label="Network Systems — CompTIA Network+">
  <defs>
    <linearGradient id="crimson" x1="0" y1="0" x2="1" y2="1">
      <stop offset="0" stop-color="#7E0E23"/>
      <stop offset="0.55" stop-color="#B4122E"/>
      <stop offset="1" stop-color="#8A1020"/>
    </linearGradient>
    <linearGradient id="gold" x1="0" y1="0" x2="1" y2="0">
      <stop offset="0" stop-color="#E4A72A"/>
      <stop offset="1" stop-color="#F5C24C"/>
    </linearGradient>
  </defs>

  <!-- background -->
  <rect x="0" y="0" width="1200" height="260" rx="20" fill="url(#crimson)"/>
  <!-- gold bottom accent -->
  <rect x="0" y="248" width="1200" height="12" fill="url(#gold)"/>

  <!-- network motif (right side) -->
  <g stroke="#F5C24C" stroke-width="2" opacity="0.35" fill="none">
    <line x1="980" y1="70" x2="1080" y2="120"/>
    <line x1="1080" y1="120" x2="1010" y2="185"/>
    <line x1="1010" y1="185" x2="1110" y2="200"/>
    <line x1="980" y1="70" x2="1110" y2="60"/>
    <line x1="1080" y1="120" x2="1110" y2="60"/>
    <line x1="1080" y1="120" x2="1110" y2="200"/>
  </g>
  <g fill="#F5C24C" opacity="0.85">
    <circle cx="980" cy="70" r="7"/>
    <circle cx="1080" cy="120" r="9"/>
    <circle cx="1010" cy="185" r="7"/>
    <circle cx="1110" cy="60" r="6"/>
    <circle cx="1110" cy="200" r="6"/>
  </g>

  <!-- text -->
  <text x="64" y="86" font-family="Segoe UI, Helvetica, Arial, sans-serif" font-size="20" font-weight="700" letter-spacing="4" fill="#F5D283">NETWORK SYSTEMS &#183; COMPTIA NETWORK+</text>
  <text x="60" y="158" font-family="Segoe UI, Helvetica, Arial, sans-serif" font-size="72" font-weight="800" fill="#ffffff">Network Systems</text>
  <text x="64" y="205" font-family="Segoe UI, Helvetica, Arial, sans-serif" font-size="26" font-weight="500" fill="#F3D6DB">CompTIA Network+ Guide to Networks &#8212; 9th Edition</text>
</svg>
